inDegrees=no
num_controls=7
num_derivatives=13
num_iterations=149
num_multipliers=7
num_parameters=0
num_slacks=7
num_states=26
objective=6.253840
objective_accelerations=0.737631
objective_balance=0.031128
objective_effort=0.666185
objective_height=4.701762
objective_ligament=0.117134
solver_duration=1693.292269
status=Solve_Succeeded
success=true
DataType=double
version=3
OpenSimVersion=4.4-2022-07-23-0e9fedc
endheader
time	/jointset/ground_pelvis/pelvis_tilt/value	/jointset/ground_pelvis/pelvis_tx/value	/jointset/ground_pelvis/pelvis_ty/value	/jointset/hip_l/hip_flexion_l/value	/jointset/hip_l/hip_adduction_l/value	/jointset/hip_l/hip_rotation_l/value	/jointset/back/lumbar_extension/value	/jointset/patellofemoral_l/patellar_flexion_l/value	/jointset/knee_l/knee_flexion_l/value	/jointset/knee_l/knee_adduction_l/value	/jointset/knee_l/knee_rotation_l/value	/jointset/ankle_l/ankle_angle_l/value	/jointset/subtalar_l/subtalar_angle_l/value	/jointset/ground_pelvis/pelvis_tilt/speed	/jointset/ground_pelvis/pelvis_tx/speed	/jointset/ground_pelvis/pelvis_ty/speed	/jointset/hip_l/hip_flexion_l/speed	/jointset/hip_l/hip_adduction_l/speed	/jointset/hip_l/hip_rotation_l/speed	/jointset/back/lumbar_extension/speed	/jointset/patellofemoral_l/patellar_flexion_l/speed	/jointset/knee_l/knee_flexion_l/speed	/jointset/knee_l/knee_adduction_l/speed	/jointset/knee_l/knee_rotation_l/speed	/jointset/ankle_l/ankle_angle_l/speed	/jointset/subtalar_l/subtalar_angle_l/speed	/forceset/tau_hip_flexion_l	/forceset/tau_hip_adduction_l	/forceset/tau_hip_rotation_l	/forceset/tau_knee_flexion_l	/forceset/tau_ankle_angle_l	/forceset/tau_subtalar_angle_l	/forceset/tau_lumbar_extension	lambda_cid13_p0	lambda_cid13_p1	lambda_cid13_p2	lambda_cid13_p3	lambda_cid13_p4	lambda_cid13_p5	lambda_cid14_p0	/jointset/ground_pelvis/pelvis_tilt/accel	/jointset/ground_pelvis/pelvis_tx/accel	/jointset/ground_pelvis/pelvis_ty/accel	/jointset/hip_l/hip_flexion_l/accel	/jointset/hip_l/hip_adduction_l/accel	/jointset/hip_l/hip_rotation_l/accel	/jointset/back/lumbar_extension/accel	/jointset/patellofemoral_l/patellar_flexion_l/accel	/jointset/knee_l/knee_flexion_l/accel	/jointset/knee_l/knee_adduction_l/accel	/jointset/knee_l/knee_rotation_l/accel	/jointset/ankle_l/ankle_angle_l/accel	/jointset/subtalar_l/subtalar_angle_l/accel	gamma_cid13_p0	gamma_cid13_p1	gamma_cid13_p2	gamma_cid13_p3	gamma_cid13_p4	gamma_cid13_p5	gamma_cid14_p0
1	-0.3098259299665031	-0.1445910824571302	0.5936521111730365	1.771887582344898	-0.3130953899860622	0.07599138905606628	-0.9599285427722716	1.446184898602442	1.446184898602404	-0.03745155376718081	-0.1745318404548613	0.07899198347122773	0.004533275374797281	0.08120606595124849	0.01554270229711941	0.07903331824715537	-0.2857357572778191	-0.008405139588383759	-0.06134309912381546	3.277294637476284e-05	-0.1667927329898781	-0.1667927329898786	-0.006706061987279612	9.529881361599615e-06	0.02919536830053129	0.002009337403110388	-0.5191543441294939	-0.03137669235414442	-0.001309241441186676	-0.3184338461602313	0.1876131210830226	0.02895214983945	0.4995985894423563	6.124699210433455	-11.79608973169364	-0.687083597497503	4.407558410880933	-832.3585739111851	-62.67824627905279	-0.04065636689391251	1.276562707582169	0.149661536541656	2.039191346713274	-6.745948475798413	-0.2871586507059533	-1.663616732327919	-0.01199367664882969	-5.220907315433729	-5.220907315433833	-0.5089176036891943	-0.02409508302010013	-0.08195591393071705	-0.3187795832744952	-8.070338920325326e-09	-7.790573081004656e-09	4.210828471533115e-08	-5.638800308017859e-09	-2.383463248361748e-08	1.370459439555318e-07	-1.878615315703328e-08
1.01	-0.3089504236769341	-0.1444281305996326	0.59454415831661	1.768693863301256	-0.3131928445692528	0.07529443027512443	-0.9599282468478778	1.444256150554094	1.444256150554115	-0.03754251210472398	-0.1745317857750159	0.07927972691999338	0.004538436455026438	0.09391299098877839	0.01705689257945407	0.09936050545619846	-0.3529849044335153	-0.01107339406447201	-0.07804126009051515	2.196231699848585e-05	-0.218941650951973	-0.2189416509519756	-0.01147930916566598	1.36079382171641e-06	0.02832846223462137	-0.0009727191914554065	-0.5181937241267582	-0.03115788328306144	-0.001352626734018579	-0.3184398672753767	0.1875756217448193	0.02916850884969826	0.4990938809958954	6.164394974581293	-11.90113270817543	-0.66562212493967	4.24045988012741	-831.7647469115211	-62.83502892746456	-0.04069753803997747	1.270423804229173	0.1536799918046709	2.027135630050626	-6.710929790228105	-0.2548022121737704	-1.671826110754605	0.003707799912294338	-5.209595149414292	-5.209595149414634	-0.4605994497457823	0.01083240175147756	-0.09278724484934919	-0.2872627977069149	-1.190547913443048e-08	-1.540817720241281e-08	5.896072415303153e-08	-6.436295280578677e-09	-3.006827196755034e-08	1.716379759921322e-07	-2.5076590401429e-08
1.02	-0.3079473148565061	-0.1442497603957666	0.5956390079766851	1.764828346395106	-0.3133166103704264	0.07443070781813606	-0.9599281925184525	1.441806371103562	1.44180637110364	-0.03768101714902226	-0.1745318107413431	0.07955805544971468	0.00451390814927809	0.1067265721219391	0.0186263715707755	0.1195938215473272	-0.4200953297801229	-0.01366738318510307	-0.09469583433375833	-1.554607259184764e-05	-0.270999013426738	-0.2709990134267439	-0.01621540333734459	-6.399358822344838e-06	0.02731238449158334	-0.003928539792392349	-0.5172331041240249	-0.03093907421197458	-0.001396012026898234	-0.3184458883905192	0.1875381224066197	0.02938486785995267	0.4985891725494309	6.199395487049959	-12.00504660859995	-0.6446908699144617	4.084404186512232	-831.2398599636099	-62.96367747631069	-0.04073613704257199	1.29789392670832	0.1607192783390221	2.020417123130405	-6.718204113980708	-0.2723055796145286	-1.654899387636623	-0.0173332286915696	-5.202596217967749	-5.202596217968094	-0.5014870023476461	-0.0240132960409582	-0.1117902493563141	-0.3135323845487319	-1.597314179526754e-08	-2.293448546889803e-08	7.491418872544858e-08	-6.204916566138126e-09	-3.614641615701332e-08	2.033445488076542e-07	-3.096467427032318e-08
1.03	-0.3068154618541586	-0.144055378592057	0.596935659422595	1.760292502766418	-0.3134659054923233	0.0734007099692677	-0.9599285645333367	1.438836535277552	1.438836535277521	-0.03786670719667661	-0.1745319206945215	0.07982537881348073	0.004459961434119877	0.1196685414599891	0.02026307189611959	0.1397148441570683	-0.487042184584243	-0.01617397022798665	-0.1112926150147359	-5.459822730663695e-05	-0.3229480193624402	-0.3229480193624402	-0.02091468877778311	-1.442198919319004e-05	0.02611788443866575	-0.006853943814939159	-0.5161292001724281	-0.03062357341504432	-0.001459552044039746	-0.3182761589889403	0.1874214132918636	0.02971322541614467	0.498058647472499	6.228689939402505	-12.16048683688597	-0.6111083494580578	3.872071022503889	-830.5048522828271	-63.16646138933327	-0.04079533459618363	1.296020565039845	0.1671066272306849	2.004692826830589	-6.678250124107762	-0.2371872936133705	-1.660428790333065	0.003447592354120866	-5.188025514085232	-5.1880255140842	-0.4529846739872341	0.01100423513467965	-0.1284415740396024	-0.2810212258804096	-2.004317713413249e-08	-3.045986214502688e-08	9.085848008495457e-08	-5.963039140605717e-09	-4.222297365979805e-08	2.350216781617366e-07	-3.684865249252855e-08
